<svg xmlns="http://www.w3.org/2000/svg" xmlns:xlink="http://www.w3.org/1999/xlink" version="1.1" x="0px" y="0px" viewBox="0 0 100 125" enable-background="new 0 0 100 100" xml:space="preserve"><g><g><path fill="#000000" d="M24.181,92.833c-2.133,0-4.275-0.336-6.362-1.018C7.095,88.32,1.213,76.75,4.708,66.024l7.417-22.754    l3.399,1.108L8.106,67.133c-2.883,8.853,1.97,18.398,10.82,21.284c4.289,1.396,8.864,1.042,12.884-1.001    c4.02-2.044,7.004-5.53,8.401-9.818l7.152-21.937l3.399,1.108l-7.151,21.937c-1.695,5.196-5.31,9.419-10.182,11.894    C30.518,92.084,27.36,92.833,24.181,92.833z"/></g><g><path fill="#000000" d="M50.13,54.735c-0.183,0-0.372-0.03-0.558-0.09c-0.936-0.306-1.451-1.313-1.142-2.253l7.174-22.009    c2.883-8.851-1.974-18.399-10.823-21.283c-8.852-2.886-18.397,1.969-21.286,10.819l-7.27,22.308    c-0.308,0.937-1.313,1.453-2.253,1.145c-0.941-0.306-1.452-1.316-1.146-2.254l7.271-22.307C23.592,8.085,35.164,2.204,45.89,5.7    c10.724,3.496,16.605,15.066,13.112,25.792l-7.174,22.009C51.582,54.254,50.881,54.735,50.13,54.735z"/></g><g><path fill="#000000" d="M49.604,56.332c-0.183,0-0.369-0.027-0.555-0.09L13.548,44.671c-0.939-0.306-1.451-1.315-1.145-2.253    c0.306-0.938,1.317-1.449,2.252-1.146l35.502,11.573c0.94,0.306,1.452,1.313,1.145,2.252    C51.06,55.853,50.358,56.332,49.604,56.332z"/></g><g><path fill="#000000" d="M19.087,85.869c-0.262,0-0.527-0.058-0.779-0.179c-10.473-5.078-9.691-14.533-7.788-18.908l5.821-17.856    c0.305-0.938,1.312-1.456,2.254-1.146c0.938,0.306,1.452,1.314,1.145,2.254l-5.914,18.113c-0.167,0.379-3.989,9.464,6.041,14.329    c0.889,0.429,1.259,1.498,0.829,2.387C20.389,85.499,19.75,85.869,19.087,85.869z"/></g><g><path fill="#000000" d="M65.217,73.814c-5.521,0-10.925-0.469-15.634-1.355c-0.968-0.184-1.605-1.119-1.422-2.088    c0.182-0.973,1.115-1.605,2.087-1.427c4.491,0.847,9.666,1.294,14.969,1.294c0.004,0,0.004,0,0.007,0    c16.854,0,27.61-4.312,27.61-7.28c0-2.97-10.757-7.282-27.61-7.282c-3.708,0.002-7.319,0.214-10.731,0.638    c-0.979,0.12-1.873-0.575-1.995-1.556c-0.121-0.979,0.576-1.871,1.556-1.993c3.555-0.441,7.316-0.663,11.171-0.663    c15.498,0,31.187,3.729,31.187,10.856S80.722,73.814,65.224,73.814C65.221,73.814,65.221,73.814,65.217,73.814z"/></g><g><path fill="#000000" d="M65.224,88.086c-6.812,0-15.927-0.904-20.939-2.925c-0.912-0.368-1.355-1.413-0.987-2.326    c0.368-0.917,1.407-1.36,2.328-0.989c4.537,1.831,13.345,2.666,19.599,2.666c16.854,0,27.61-4.312,27.61-7.282V64.397    c0-0.989,0.801-1.788,1.788-1.788c0.986,0,1.788,0.799,1.788,1.788v12.832C96.41,84.356,80.722,88.086,65.224,88.086z"/></g><g><path fill="#000000" d="M56.534,69.126c-0.679,0-1.326-0.386-1.627-1.044c-0.411-0.897-0.021-1.958,0.88-2.371l18.659-8.567    c0.904-0.411,1.96-0.021,2.371,0.876s0.021,1.96-0.876,2.373l-18.663,8.569C57.035,69.072,56.785,69.126,56.534,69.126z"/></g></g><text x="0" y="115" fill="#000000" font-size="5px" font-weight="bold" font-family="'Helvetica Neue', Helvetica, Arial-Unicode, Arial, Sans-serif">Created by Joseph Augustine</text><text x="0" y="120" fill="#000000" font-size="5px" font-weight="bold" font-family="'Helvetica Neue', Helvetica, Arial-Unicode, Arial, Sans-serif">from the Noun Project</text></svg>